<?xml version="1.0" encoding="UTF-8"?>
<svg id="Ebene_1" data-name="Ebene 1" xmlns="http://www.w3.org/2000/svg" viewBox="0 0 1688.13 1409.01">
  <defs>
    <style>
      .cls-1 {
        fill: #ff8f3f;
      }

      .cls-2 {
        fill: #4fe3f0;
      }

      .cls-3 {
        fill: #0e0f11;
      }
    </style>
  </defs>
  <g>
    <path class="cls-2" d="M1095.76,1357.38c-20.04,0-40.12-1.21-60.19-3.63-64.71-7.81-126.56-27.84-183.84-59.53-57.28-31.69-107.11-73.45-148.1-124.13-42.45-52.47-73.5-112.23-92.31-177.63-15.17-52.76-19.56-106.92-13.03-160.98,6.3-52.21,22.46-102.11,48.03-148.33,25.57-46.21,59.26-86.42,100.15-119.49,42.34-34.25,90.55-59.31,143.31-74.48,84.41-24.28,173.21-14.23,250.06,28.29,76.85,42.52,132.54,112.42,156.82,196.83,19.67,68.41,11.53,140.38-22.93,202.67-34.46,62.28-91.11,107.42-159.52,127.09l-9.5-33.05c59.58-17.13,108.92-56.45,138.94-110.69,30.01-54.25,37.11-116.94,19.97-176.52-44.87-156.02-208.31-246.45-364.33-201.58-95.58,27.49-174.73,90.55-222.88,177.57-48.15,87.02-59.53,187.58-32.04,283.16,71.59,248.91,332.32,393.17,581.24,321.59,151.82-43.66,277.56-143.84,354.04-282.07,76.48-138.23,94.55-297.97,50.89-449.8C1517.2,178.64,1104.42-49.74,710.37,63.58c-239.71,68.94-438.22,227.1-558.97,445.34C30.65,727.17,2.11,979.38,71.05,1219.09l-33.04,9.5C1.88,1102.98-8.56,974.05,6.97,845.38c15-124.28,53.47-243.08,114.34-353.1,60.87-110.02,141.08-205.72,238.41-284.45,100.77-81.52,215.55-141.16,341.15-177.29C801.8,1.51,905.4-6.88,1008.8,5.6c99.86,12.05,195.32,42.96,283.73,91.88,88.41,48.91,165.31,113.37,228.57,191.57,65.5,80.97,113.44,173.2,142.46,274.13,23.35,81.19,30.1,164.53,20.06,247.71-9.7,80.33-34.56,157.12-73.91,228.24-39.35,71.11-91.19,132.97-154.1,183.87-65.14,52.69-139.33,91.25-220.52,114.6-45.8,13.17-92.47,19.79-139.34,19.79Z"/>
    <path class="cls-1" d="M544.4,1409.01c-67.26-64.85-119.81-140.94-156.19-226.16-35.14-82.3-53.78-169.6-55.42-259.47-1.64-89.87,13.81-177.79,45.92-261.32,33.25-86.49,82.99-164.45,147.84-231.71,52.2-54.14,113.45-96.44,182.05-125.73,66.25-28.28,136.53-43.29,208.87-44.61,72.35-1.32,143.12,11.12,210.36,36.97,69.62,26.77,132.38,66.81,186.52,119.01,85.9,82.83,139.01,204.76,145.71,334.53,3.3,63.92-4.68,125.52-23.73,183.1-20.14,60.91-51.63,113.86-93.59,157.37-66.5,68.97-156.41,106.89-253.32,106.9-.56,0-1.11,0-1.67,0-46.92-.21-92.97-9.27-136.87-26.93-45.15-18.16-85.94-44.62-121.22-78.64-56.35-54.33-92.1-134.92-98.08-221.1-2.91-42.03,1.7-84.08,13.34-121.62,12.63-40.72,32.98-75.83,60.49-104.37,44-45.64,103.18-71.26,166.63-72.15,62.82-.89,123.24,22.47,170.13,65.74,19.19,17.7,35.33,41.57,46.67,69,11.78,28.5,17.43,58.81,16.35,87.66-1.84,48.91-22.4,90.28-59.44,119.62-19.2,15.21-40.12,26.34-58.89,31.33l-8.83-33.23c14.31-3.81,30.78-12.7,46.37-25.05,36.54-28.94,45.42-67.07,46.43-93.96,1.79-47.48-19.1-99.77-51.98-130.1-84.24-77.73-211.04-75.53-288.69,5-46.33,48.05-69.76,120.85-64.29,199.74,5.39,77.79,37.34,150.22,87.64,198.73,63.76,61.48,147,95.56,234.38,95.95.5,0,1.01,0,1.51,0,87.5,0,168.62-34.19,228.58-96.38,74.79-77.57,114.05-192.32,107.73-314.84-6.25-121.16-55.55-234.72-135.24-311.55-207.51-200.07-539.1-194.03-739.18,13.48-251.74,261.09-244.13,678.31,16.96,930.05l-23.87,24.75Z"/>
  </g>
  <g>
    <g>
      <path class="cls-3" d="M238.26,1186.18v-340.39h64.19v282.04h155.61v58.35h-219.79Z"/>
      <path class="cls-3" d="M634.07,1192.99c-42.79,0-76.83-11.75-102.12-35.25-25.29-23.5-37.93-57.14-37.93-100.9v-81.69c0-43.76,12.64-77.39,37.93-100.9,25.29-23.5,59.33-35.25,102.12-35.25s76.83,11.75,102.12,35.25c25.29,23.51,37.93,57.14,37.93,100.9v81.69c0,43.76-12.64,77.4-37.93,100.9-25.29,23.51-59.32,35.25-102.12,35.25ZM634.07,1135.61c23.99,0,42.62-6.97,55.92-20.91,13.29-13.93,19.94-32.58,19.94-55.92v-85.58c0-23.34-6.65-41.98-19.94-55.92-13.3-13.93-31.93-20.91-55.92-20.91s-42.23,6.97-55.68,20.91c-13.46,13.94-20.18,32.58-20.18,55.92v85.58c0,23.34,6.72,41.99,20.18,55.92,13.45,13.94,32.01,20.91,55.68,20.91Z"/>
      <path class="cls-3" d="M807.18,1186.18l89.47-340.39h111.84l89.47,340.39h-66.13l-18.48-74.89h-121.57l-18.48,74.89h-66.13ZM906.87,1051.97h91.42l-41.33-165.82h-8.75l-41.33,165.82Z"/>
      <path class="cls-3" d="M1129.09,1186.18v-56.41h44.74v-227.57h-44.74v-56.41h140.05c45.71,0,80.48,11.59,104.3,34.77,23.83,23.18,35.74,57.62,35.74,103.33v64.19c0,45.71-11.91,80.16-35.74,103.33-23.83,23.18-58.6,34.77-104.3,34.77h-140.05ZM1238.01,1127.83h32.09c25.93,0,44.9-6.81,56.89-20.42,11.99-13.61,17.99-32.74,17.99-57.38v-68.08c0-24.96-6-44.17-17.99-57.62-12-13.45-30.96-20.18-56.89-20.18h-32.09v223.68Z"/>
    </g>
    <g>
      <path class="cls-3" d="M394.5,797.68c-42.56,4.47-77.64-3.65-105.24-24.39-27.6-20.73-43.69-52.86-48.27-96.38l-8.54-81.25c-4.57-43.52,4.48-78.29,27.17-104.31,22.69-26.01,55.31-41.26,97.87-45.74,42.56-4.47,77.64,3.66,105.24,24.39,27.61,20.74,43.69,52.86,48.27,96.38l8.54,81.25c4.58,43.52-4.48,78.3-27.17,104.31-22.69,26.02-55.31,41.26-97.87,45.74ZM388.5,740.61c23.86-2.51,41.66-11.39,53.43-26.64,11.76-15.25,16.42-34.49,13.98-57.7l-8.95-85.11c-2.44-23.21-11-41.05-25.67-53.53-14.68-12.47-33.94-17.46-57.8-14.95-23.54,2.47-41.27,11.35-53.19,26.62-11.92,15.27-16.66,34.51-14.22,57.72l8.95,85.11c2.44,23.21,11.08,41.05,25.92,53.5,14.83,12.46,34.02,17.45,57.56,14.98Z"/>
      <path class="cls-3" d="M652.03,763.76l-121.66-329.47,65.77-6.91,102.83,289.89,6.77-.71,40.31-304.94,65.77-6.91-50.5,347.57-109.29,11.49Z"/>
      <path class="cls-3" d="M888.03,738.96l-35.58-338.52,217.62-22.87,6.1,58.03-153.79,16.16,8.49,80.76,140.24-14.74,6.1,58.03-140.24,14.74,8.79,83.66,156.69-16.47,6.1,58.03-220.52,23.18Z"/>
      <path class="cls-3" d="M1155.94,710.8l-35.58-338.52,147.02-15.45c21.28-2.24,40.2-.48,56.78,5.28,16.57,5.76,29.93,14.94,40.06,27.57,10.13,12.63,16.16,28.13,18.09,46.5l.61,5.8c2.13,20.31-.97,37.26-9.32,50.85-8.35,13.59-19.32,24.03-32.89,31.33l.91,8.7c12.96-.7,23.42,2.67,31.38,10.15,7.95,7.48,12.65,17.98,14.07,31.53l11.64,110.75-63.84,6.71-10.68-101.56c-.81-7.74-3.49-13.81-8.03-18.23-4.54-4.41-11.48-6.13-20.83-5.14l-88.98,9.35,13.42,127.67-63.84,6.71ZM1200.26,518.39l76.41-8.03c15.15-1.59,26.57-6.95,34.25-16.07,7.67-9.12,10.81-20.45,9.38-33.99l-.51-4.84c-1.42-13.54-6.76-23.98-16-31.32-9.25-7.34-21.61-10.2-37.08-8.57l-76.41,8.03,9.96,94.79Z"/>
    </g>
  </g>
</svg>